# xmcd CD database file
#
# Track frame offsets:
#	182
#	11782
#	24955
#	37172
#	57907
#	74140
#	92577
#	105275
#	119200
#	133915
#	151532
#	166462
#	182957
#	199770
#	211452
#	226352
#	238812
#	252567
#
# Disc length: 3550 seconds
#
# Revision: 2
# Processed by: cddbd v1.5.2PL0 Copyright (c) Steve Scherf et al.
# Submitted via: CDex 1.70beta2
#
DISCID=090ddc12
DTITLE=Various Artist - 18 Kickin' Country Classics
DYEAR=1997
DGENRE=Country
TTITLE0=Trouble On The Line
TTITLE1=Runnin' Behind
TTITLE2=Better Class Of Losers
TTITLE3=Amy's Back In Austin
TTITLE4=The City Put The Country Back In Me
TTITLE5=Old Hippie
TTITLE6=She Took It Like A Man
TTITLE7=Brother Jukebox
TTITLE8=Drivin' My Life Away
TTITLE9=Mountain Music
TTITLE10=Meet In The Middle
TTITLE11=Beer And Bones
TTITLE12=Honky Tonk Crowd
TTITLE13=Guitar Town
TTITLE14=Lond Hard Road (The Sharecropper's Dream)
TTITLE15=Cheap Thrills
TTITLE16=Love Without Mercy
TTITLE17=Speak Of the devil
EXTD=YEAR: 1997
EXTT0=
EXTT1=
EXTT2=
EXTT3=
EXTT4=
EXTT5=
EXTT6=
EXTT7=
EXTT8=
EXTT9=
EXTT10=
EXTT11=
EXTT12=
EXTT13=
EXTT14=
EXTT15=
EXTT16=
EXTT17=
PLAYORDER=
